<?xml version="1.0" encoding="UTF-8"?>
<svg id="Layer_2" data-name="Layer 2" xmlns="http://www.w3.org/2000/svg" viewBox="0 0 51.43 12.15">
  <defs>
    <style>
      .cls-1 {
        fill: #221f20;
      }

      .cls-2 {
        stroke: #28663d;
        stroke-miterlimit: 10;
        stroke-width: 0px;
      }
    </style>
  </defs>
  <g id="Layer_1-2" data-name="Layer 1">
    <g>
      <g>
        <path class="cls-1" d="M14.09,9.52V.85h5.29V1.93h-4.11v2.71h3.71v1.04h-3.71v2.75h4.11v1.09h-5.29Z"/>
        <path class="cls-1" d="M19.93,9.52l2.05-2.9-2.04-2.96h1.31l1.49,2.18,1.45-2.18h1.28l-2.04,2.96,2,2.9h-1.31l-1.46-2.15-1.44,2.15h-1.29Z"/>
        <path class="cls-1" d="M26.15,3.66h1.02l.08,1.06c.4-.8,1.19-1.22,2.12-1.22,1.68,0,2.72,1.26,2.72,3.06s-.98,3.13-2.72,3.13c-.94,0-1.72-.4-2.1-1.12v3.59h-1.13V3.66Zm2.99,5c1.15,0,1.83-.86,1.83-2.06s-.68-2.08-1.83-2.08-1.85,.85-1.85,2.08,.7,2.06,1.85,2.06Z"/>
        <path class="cls-1" d="M32.8,7.89c0-1.08,.8-1.75,2.18-1.86l1.85-.14v-.17c0-.98-.59-1.33-1.38-1.33-.95,0-1.49,.42-1.49,1.13h-.98c0-1.22,1.01-2.03,2.52-2.03s2.43,.77,2.43,2.35v3.68h-.96l-.12-.95c-.3,.67-1.1,1.09-2.05,1.09-1.26,0-2-.71-2-1.77Zm4.04-.9v-.31l-1.5,.12c-1,.1-1.4,.48-1.4,1.06,0,.62,.46,.94,1.19,.94,1.07,0,1.71-.7,1.71-1.8Z"/>
        <path class="cls-1" d="M39.23,9.52V3.66h1.02l.12,.9c.37-.67,1.12-1.07,1.94-1.07,1.55,0,2.25,.95,2.25,2.45v3.59h-1.13v-3.33c0-1.19-.55-1.67-1.42-1.67-1.06,0-1.67,.76-1.67,1.9v3.11h-1.13Z"/>
        <path class="cls-1" d="M45.48,6.61c0-1.8,1.04-3.12,2.78-3.12,.9,0,1.65,.4,2.05,1.12V.69h1.12V9.52h-1.01l-.1-1.07c-.38,.8-1.18,1.21-2.11,1.21-1.7,0-2.73-1.27-2.73-3.06Zm4.82-.04c0-1.2-.71-2.06-1.86-2.06s-1.82,.86-1.82,2.06,.67,2.07,1.82,2.07,1.86-.85,1.86-2.07Z"/>
      </g>
      <g>
        <path d="M9.32,1.83l-3.85,3.85s-.08-.07-.12-.1l-1.81,1.81s-.06-.06-.08-.09l-1.86,1.86-.12-.12,1.86-1.86s-.05-.06-.07-.09l1.8-1.8s-.07-.08-.1-.12l3.83-3.83c.09,.08,.17,.15,.25,.24s.17,.18,.25,.27Z"/>
        <path d="M8.71,1.23l-3.81,3.81s-.06-.09-.09-.13l-1.8,1.8s-.04-.06-.06-.09l-1.89,1.89s-.07-.09-.1-.14l1.9-1.9s-.04-.07-.06-.1l1.8-1.8s-.06-.09-.08-.15L8.12,.81c.2,.13,.4,.27,.59,.42Z"/>
        <path d="M8,.74l-3.56,3.56s-.05-.1-.07-.15l-1.8,1.8s-.03-.07-.05-.11l-1.94,1.94c-.03-.06-.05-.11-.08-.17l1.95-1.95s-.03-.08-.04-.12l1.8-1.8c-.02-.06-.04-.11-.06-.17L7.33,.4c.23,.09,.46,.21,.67,.34Z"/>
        <path d="M7.19,.35l-3.08,3.08c-.01-.06-.03-.12-.05-.18l-1.8,1.8s-.02-.08-.03-.12L.23,6.92c-.02-.06-.04-.13-.05-.19l2-2s-.02-.09-.03-.13l1.8-1.8c-.01-.06-.03-.13-.04-.19L6.41,.12c.27,.06,.53,.13,.78,.23Z"/>
        <g>
          <path d="M5.12,0l-1.33,1.33c0-.08,0-.15,0-.22l-1.82,1.82c0-.05,0-.11,0-.16L.02,4.72c.01-.09,.02-.19,.04-.28l1.91-1.91c0-.06,0-.11,0-.17L4.22,.11c.3-.06,.6-.1,.9-.11Z"/>
          <path d="M6.24,.09L3.89,2.44c-.01-.07-.02-.14-.03-.2l-1.8,1.8s-.01-.1-.01-.15L.02,5.92c0-.07-.01-.15-.02-.22L2.02,3.69s0-.05,0-.07c0-.03,0-.04,0-.07l1.81-1.81c0-.07-.01-.14-.01-.21l1.52-1.52c.31,0,.62,.03,.92,.09Z"/>
        </g>
        <path d="M9.83,2.53l-3.66,3.66s-.09-.05-.13-.08l-1.82,1.82s-.07-.04-.09-.07l-1.84,1.84s-.09-.06-.14-.1l1.84-1.84s-.06-.05-.09-.07l1.81-1.81s-.08-.07-.12-.1l3.83-3.83c.15,.18,.29,.38,.42,.58Z"/>
        <path d="M10.24,3.33l-3.23,3.23c-.06-.01-.11-.04-.16-.06l-1.83,1.83s-.07-.03-.12-.05l-1.85,1.85c-.05-.02-.11-.05-.16-.07l1.85-1.85s-.07-.03-.1-.05l1.82-1.82c-.05-.02-.1-.05-.15-.08l3.6-3.6c.13,.22,.24,.45,.33,.68Z"/>
        <path d="M10.5,6.45l-2.26,2.26c-.06,0-.12,.01-.17,.01l-1.83,1.83c-.1,.01-.19,.03-.29,.04l1.86-1.86c-.06,0-.11,0-.16,0l1.89-1.89c-.07,0-.15,.01-.23,0l1.32-1.32c-.01,.3-.05,.6-.12,.9Z"/>
        <path class="cls-2" d="M10.51,4.26l-2.54,2.54c-.06-.01-.13-.02-.19-.03l-1.84,1.84s-.07-.01-.1-.02c-.01,0-.02,0-.03,0l-1.87,1.87c-.06-.02-.13-.04-.19-.05l1.87-1.87s-.08-.02-.12-.03l1.84-1.84c-.06-.02-.12-.03-.17-.05l3.14-3.14c.09,.26,.17,.52,.22,.79Z"/>
        <path class="cls-2" d="M7.69,10.08l1.48-1.48c-.07,.01-.13,.03-.2,.03l1.23-1.23c-.17,.4-.39,.79-.67,1.14h0c-.14,.19-.3,.37-.47,.55-.42,.42-.88,.75-1.38,1Z"/>
        <path class="cls-2" d="M10.63,5.35l-1.53,1.53c-.07,0-.15,0-.22,0l-1.87,1.87s-.1,0-.15-.01l-1.9,1.9c-.07,0-.15-.01-.23-.02l1.89-1.89s-.09-.01-.14-.02l1.86-1.86c-.07,0-.13-.01-.2-.02l2.4-2.4c.06,.3,.08,.61,.08,.93Z"/>
        <path class="cls-2" d="M2.04,1.44L.51,3.02c.25-.53,.6-1.03,1.04-1.46,.17-.17,.36-.33,.55-.47,.38-.3,.79-.52,1.22-.7l-1.29,1.29,.02-.23Z"/>
      </g>
    </g>
  </g>
</svg>